<svg xmlns="http://www.w3.org/2000/svg" enable-background="new 0 0 1600 1600" viewBox="0 0 1600 1600" id="online-blog"><path d="M1361.2,1356.9H56c-11.6,0-21-9.4-21-21V264.1c0-11.6,9.4-21,21-21h1305.2c11.6,0,21,9.4,21,21V472c0,11.6-9.4,21-21,21s-21-9.4-21-21V285.1H77V1315h1284.2c11.6,0,21,9.4,21,21S1372.8,1356.9,1361.2,1356.9z"></path><path d="M1361.2 1356.9H56c-11.6 0-21-9.4-21-21v-864c0-11.6 9.4-21 21-21h1305.2c11.6 0 21 9.4 21 21v209.4c0 11.6-9.4 21-21 21s-21-9.4-21-21V492.9H77v822h1263.2V912.3c0-11.6 9.4-21 21-21s21 9.4 21 21v423.6C1382.2 1347.5 1372.8 1356.9 1361.2 1356.9zM220 398.7L220 398.7c-17 0-30.7-13.7-30.7-30.7l0 0c0-17 13.7-30.7 30.7-30.7l0 0c17 0 30.7 13.7 30.7 30.7l0 0C250.7 385 237 398.7 220 398.7zM341.1 398.7L341.1 398.7c-17 0-30.7-13.7-30.7-30.7l0 0c0-17 13.7-30.7 30.7-30.7l0 0c17 0 30.7 13.7 30.7 30.7l0 0C371.8 385 358 398.7 341.1 398.7zM462.1 398.7L462.1 398.7c-17 0-30.7-13.7-30.7-30.7l0 0c0-17 13.7-30.7 30.7-30.7l0 0c17 0 30.7 13.7 30.7 30.7l0 0C492.8 385 479.1 398.7 462.1 398.7z"></path><g><path d="M1269.3,1092.4c-3.6,0-7.2-0.9-10.5-2.8l-100.1-57.8c-4.8-2.8-8.3-7.4-9.8-12.8c-1.4-5.4-0.7-11.1,2.1-15.9l270.6-468.4c2.8-4.8,7.4-8.3,12.8-9.8c5.4-1.4,11.1-0.7,15.9,2.1l100.1,57.8c10,5.8,13.5,18.6,7.7,28.7l-270.6,468.4C1283.6,1088.7,1276.6,1092.4,1269.3,1092.4z M1197.9,1005.9l63.7,36.8l249.6-432l-63.7-36.8L1197.9,1005.9z"></path><path d="M1179.1 1189.2c-3.6 0-7.2-.9-10.5-2.8l-48.8-28.2c-8.5-4.9-12.4-15-9.6-24.3l38.8-126.5c1.9-6.1 6.4-11 12.4-13.4 6-2.3 12.6-1.8 18.2 1.4l100.1 57.8c5.5 3.2 9.3 8.8 10.3 15.1s-1 12.7-5.4 17.4l-90.2 96.8C1190.4 1186.9 1184.8 1189.2 1179.1 1189.2zM1155.4 1130.2l19.8 11.4 60.8-65.3-54.4-31.4L1155.4 1130.2zM1523.3 614.4c-3.6 0-7.2-.9-10.5-2.8-10-5.8-13.5-18.6-7.7-28.7l15.6-26.9c2.3-4 2.9-8.7 1.7-13.3-1.2-4.6-4.1-8.4-8.1-10.7-8.4-4.8-19.1-2-24 6.4l-15.6 26.9c-5.8 10-18.6 13.5-28.7 7.7-10-5.8-13.5-18.6-7.7-28.7l15.6-26.9c7.9-13.7 20.8-23.6 36.2-27.7 15.4-4.1 31.4-2 45.2 5.9 13.7 7.9 23.6 20.8 27.7 36.2 4.1 15.3 2 31.4-5.9 45.1l-15.6 26.9C1537.6 610.6 1530.5 614.4 1523.3 614.4z"></path><path d="M1129.5 1218.8c-3.6 0-7.2-.9-10.5-2.8-10-5.8-13.5-18.6-7.7-28.7l25.2-43.6c5.8-10 18.6-13.5 28.7-7.7 10 5.8 13.5 18.6 7.7 28.7l-25.2 43.6C1143.9 1215 1136.8 1218.8 1129.5 1218.8zM1490.3 710c-3.6 0-7.2-.9-10.5-2.8l-100.1-57.8c-10-5.8-13.5-18.6-7.7-28.7 5.8-10 18.6-13.5 28.7-7.7l100.1 57.8c10 5.8 13.5 18.6 7.7 28.7C1504.6 706.2 1497.5 710 1490.3 710z"></path></g><g><path d="M440.6 857.4H203c-11.6 0-21-9.4-21-21V598.8c0-11.6 9.4-21 21-21h237.6c11.6 0 21 9.4 21 21v237.6C461.6 848 452.2 857.4 440.6 857.4zM224 815.4h195.6V619.8H224V815.4zM995.8 628.4h-442c-11.6 0-21-9.4-21-21s9.4-21 21-21h442c11.6 0 21 9.4 21 21S1007.4 628.4 995.8 628.4zM1214.2 628.4H1080c-11.6 0-21-9.4-21-21s9.4-21 21-21h134.2c11.6 0 21 9.4 21 21S1225.8 628.4 1214.2 628.4zM764.2 742.9H553.8c-11.6 0-21-9.4-21-21s9.4-21 21-21h210.4c11.6 0 21 9.4 21 21S775.8 742.9 764.2 742.9zM1214.2 742.9H843.1c-11.6 0-21-9.4-21-21s9.4-21 21-21h371.1c11.6 0 21 9.4 21 21S1225.8 742.9 1214.2 742.9zM897.6 857.4H553.8c-11.6 0-21-9.4-21-21s9.4-21 21-21h343.7c11.6 0 21 9.4 21 21S909.2 857.4 897.6 857.4zM1158.1 857.4H968.6c-11.6 0-21-9.4-21-21s9.4-21 21-21h189.5c11.6 0 21 9.4 21 21S1169.7 857.4 1158.1 857.4z"></path><g><path d="M1003.7 992.5h-442c-11.6 0-21-9.4-21-21s9.4-21 21-21h442c11.6 0 21 9.4 21 21S1015.3 992.5 1003.7 992.5zM477.5 992.5H203c-11.6 0-21-9.4-21-21s9.4-21 21-21h274.6c11.6 0 21 9.4 21 21S489.1 992.5 477.5 992.5zM1003.7 1107H793.4c-11.6 0-21-9.4-21-21s9.4-21 21-21h210.4c11.6 0 21 9.4 21 21S1015.3 1107 1003.7 1107zM714.4 1107H203c-11.6 0-21-9.4-21-21s9.4-21 21-21h511.4c11.6 0 21 9.4 21 21S726 1107 714.4 1107zM1003.7 1221.5H603.9c-11.6 0-21-9.4-21-21s9.4-21 21-21h399.9c11.6 0 21 9.4 21 21S1015.3 1221.5 1003.7 1221.5zM532.8 1221.5H203c-11.6 0-21-9.4-21-21s9.4-21 21-21h329.8c11.6 0 21 9.4 21 21S544.4 1221.5 532.8 1221.5z"></path></g></g></svg>