<?xml version="1.0" encoding="UTF-8" standalone="no"?> <svg width="64" height="64" viewBox="0 0 64 64" fill="none" xmlns="http://www.w3.org/2000/svg">
<path d="M48.68 29.7099H46.23V23.7899C46.23 23.5247 46.1246 23.2703 45.9371 23.0828C45.7496 22.8953 45.4952 22.7899 45.23 22.7899H7C6.73478 22.7899 6.48043 22.8953 6.29289 23.0828C6.10536 23.2703 6 23.5247 6 23.7899V52.5399C6 54.7836 6.89132 56.9355 8.47788 58.522C10.0644 60.1086 12.2163 60.9999 14.46 60.9999H37.77C40.0137 60.9999 42.1656 60.1086 43.7521 58.522C45.3387 56.9355 46.23 54.7836 46.23 52.5399V48.4399H48.68C51.1108 48.3605 53.4154 47.339 55.1069 45.5914C56.7983 43.8438 57.7439 41.507 57.7439 39.0749C57.7439 36.6428 56.7983 34.306 55.1069 32.5584C53.4154 30.8108 51.1108 29.7894 48.68 29.7099V29.7099ZM48.68 46.4399H46.23V31.7099H48.68C50.5864 31.7802 52.3912 32.5869 53.715 33.9604C55.0389 35.3339 55.7786 37.1673 55.7786 39.0749C55.7786 40.9826 55.0389 42.8159 53.715 44.1894C52.3912 45.563 50.5864 46.3697 48.68 46.4399Z" fill="#CAD1D3"/>
<path d="M24.19 21C23.9248 21 23.6704 20.8946 23.4829 20.7071C23.2953 20.5195 23.19 20.2652 23.19 20C23.1642 19.5507 22.9613 19.1299 22.6257 18.83C22.2902 18.53 21.8494 18.3754 21.4 18.4H19.73C19.3462 18.4229 18.9618 18.367 18.6004 18.2359C18.239 18.1048 17.9082 17.9011 17.6283 17.6375C17.3485 17.3739 17.1255 17.0558 16.9731 16.7028C16.8207 16.3498 16.7421 15.9694 16.7421 15.585C16.7421 15.2005 16.8207 14.8201 16.9731 14.4671C17.1255 14.1142 17.3485 13.7961 17.6283 13.5324C17.9082 13.2688 18.239 13.0652 18.6004 12.934C18.9618 12.8029 19.3462 12.7471 19.73 12.77H31.48C31.9002 12.7918 32.3119 12.6462 32.6249 12.365C32.9379 12.0838 33.1267 11.6901 33.15 11.27C33.1242 10.8508 32.9346 10.4586 32.6222 10.178C32.3097 9.89734 31.8995 9.7508 31.48 9.76997H13.29C12.3703 9.79149 11.4796 9.44801 10.8125 8.81463C10.1454 8.18125 9.75616 7.30949 9.72998 6.38997C9.75356 5.46869 10.1416 4.59438 10.809 3.95886C11.4764 3.32333 12.3686 2.97848 13.29 2.99997H39.5C39.7652 2.99997 40.0196 3.10533 40.2071 3.29286C40.3946 3.4804 40.5 3.73475 40.5 3.99997C40.5 4.26519 40.3946 4.51954 40.2071 4.70708C40.0196 4.89461 39.7652 4.99997 39.5 4.99997H13.29C12.899 4.97811 12.5152 5.11213 12.2228 5.37267C11.9304 5.63321 11.7532 5.99902 11.73 6.38997C11.7532 6.78092 11.9304 7.14673 12.2228 7.40727C12.5152 7.66781 12.899 7.80183 13.29 7.77997H31.48C32.4305 7.75849 33.3507 8.11493 34.0387 8.77108C34.7267 9.42724 35.1264 10.3295 35.15 11.28C35.1264 12.2304 34.7267 13.1327 34.0387 13.7889C33.3507 14.445 32.4305 14.8014 31.48 14.78H19.73C19.6154 14.7673 19.4994 14.7789 19.3895 14.814C19.2797 14.8492 19.1786 14.9071 19.0926 14.984C19.0067 15.0609 18.938 15.1551 18.8909 15.2604C18.8439 15.3656 18.8196 15.4797 18.8196 15.595C18.8196 15.7103 18.8439 15.8243 18.8909 15.9296C18.938 16.0348 19.0067 16.129 19.0926 16.2059C19.1786 16.2828 19.2797 16.3408 19.3895 16.3759C19.4994 16.4111 19.6154 16.4227 19.73 16.41H21.4C22.378 16.3858 23.3258 16.7499 24.036 17.4226C24.7463 18.0954 25.1612 19.0221 25.19 20C25.19 20.2652 25.0846 20.5195 24.8971 20.7071C24.7096 20.8946 24.4552 21 24.19 21Z" fill="#E4E5E6"/>
<path d="M33.0001 19C32.1584 19.0026 31.3521 19.3388 30.7579 19.9349C30.1637 20.531 29.8301 21.3383 29.8301 22.18V22.78H31.8301V22.18C31.815 22.0166 31.8341 21.8518 31.8863 21.6962C31.9385 21.5406 32.0226 21.3977 32.1332 21.2764C32.2437 21.1551 32.3784 21.0583 32.5285 20.992C32.6787 20.9257 32.841 20.8915 33.0051 20.8915C33.1692 20.8915 33.3315 20.9257 33.4816 20.992C33.6318 21.0583 33.7664 21.1551 33.877 21.2764C33.9876 21.3977 34.0716 21.5406 34.1238 21.6962C34.176 21.8518 34.1952 22.0166 34.1801 22.18V31.18C34.1801 31.4452 34.2854 31.6996 34.473 31.8871C34.6605 32.0746 34.9149 32.18 35.1801 32.18C35.4453 32.18 35.6996 32.0746 35.8872 31.8871C36.0747 31.6996 36.1801 31.4452 36.1801 31.18V22.18C36.1774 21.3374 35.8416 20.5301 35.2458 19.9343C34.65 19.3385 33.8427 19.0026 33.0001 19V19Z" fill="#E4E5E6"/>
<path d="M40.5001 35.3299C40.4961 35.2199 40.4724 35.1116 40.4301 35.0099V34.9299V34.8699L38.0601 30.6999C37.9733 30.5455 37.847 30.4169 37.6941 30.3272C37.5412 30.2376 37.3673 30.1902 37.1901 30.1899H33.1101C32.9329 30.1902 32.759 30.2376 32.6061 30.3272C32.4532 30.4169 32.3269 30.5455 32.2401 30.6999L29.9201 34.8699V34.9299V35.0099C29.8778 35.1116 29.8541 35.2199 29.8501 35.3299V42.8699C29.8501 43.1352 29.9555 43.3895 30.143 43.577C30.3305 43.7646 30.5849 43.8699 30.8501 43.8699H39.5501C39.8153 43.8699 40.0697 43.7646 40.2572 43.577C40.4447 43.3895 40.5501 43.1352 40.5501 42.8699V35.3299H40.5001Z" fill="#8B9DA1"/>
</svg>
