<?xml version="1.0" encoding="UTF-8" standalone="no"?> <svg width="20" height="20" viewBox="0 0 52 52" fill="none" xmlns="http://www.w3.org/2000/svg">
<path d="M29.331 25.9998C29.331 34.0769 22.7651 40.625 14.6653 40.625C6.56549 40.625 0 34.0789 0 25.9998C0 17.9207 6.56598 11.375 14.6653 11.375C22.7646 11.375 29.331 17.9226 29.331 25.9998ZM45.4196 25.9998C45.4196 33.6034 42.1363 39.7668 38.0867 39.7668C34.037 39.7668 30.7538 33.6014 30.7538 25.9998C30.7538 18.3981 34.037 12.2327 38.0867 12.2327C42.1363 12.2327 45.4196 18.3981 45.4196 25.9998ZM52 25.9998C52 32.8122 50.8452 38.3344 49.4209 38.3344C47.9967 38.3344 46.8418 32.8103 46.8418 25.9998C46.8418 19.1892 47.9967 13.6651 49.4214 13.6651C50.8462 13.6651 52 19.1878 52 25.9998Z" fill="#eae5e5"/>
</svg>
